<?xml version="1.0" encoding="UTF-8" standalone="no"?>
<svg xmlns="http://www.w3.org/2000/svg" height="940" width="925" version="1.1" viewBox="591.157 0.862 924.99999 940.00001">
 <defs>
  <style>.cls-1 {
        fill: url(#linear-gradient);
      }</style>
  <linearGradient id="linear-gradient" y2="637.12" gradientUnits="userSpaceOnUse" x2="1307.6" gradientTransform="matrix(.99208 0 0 1.008 250.75 -38.239)" y1="-66.55" x1="717.65">
   <stop stop-color="#01014a" offset="0"/>
   <stop stop-color="#080031" offset="1"/>
  </linearGradient>
 </defs>
 <path fill="#09072e" d="m591.64 0.37958v940h925c-20.543-0.69185-69.815-4.8014-99.499-15.189-74.713-22.055-159.11-57.547-195.5-142.89-13.357-42.874-14.058-93.087-43.694-127.46-57.666-71.863-152.82-80.726-231.43-62.751-74.475 4.8225-155.09-21.221-208.39-84.001-37.7-44.5-39.17-113.32-20.89-168.84 16.37-61.3 11.49-135.78-33.86-179.3-40.53-43.37-88.38-90.88-91.74-159.57z"/>
 <path d="m2918.6-329.06c-6.0207 0.15919-7.173 0.10866-19.029 0.51953-21.975 0.76153-53.143 1.9203-90.43 3.3477-74.574 2.8547-173.62 6.7832-272.54 10.752-197.84 7.9375-395.16 16.037-395.16 16.037-0.3375-0.0812-1.1554-0.0155-2.3809 0.20508-1.2255 0.22061-2.8585 0.5957-4.8262 1.1328-1.9676 0.53711-4.2699 1.2353-6.8339 2.1035-2.564 0.86826-5.3899 1.907-8.4043 3.1211-3.0145 1.2141-6.2181 2.6032-9.5371 4.1777-3.3191 1.5745-6.7527 3.3336-10.23 5.2832-3.4778 1.9496-6.9995 4.0903-10.49 6.4297-3.4908 2.3394-6.9508 4.8773-10.309 7.6211-3.3579 2.7438-6.6124 5.6927-9.6914 8.8555-3.0791 3.1628-5.9824 6.5402-8.6368 10.137-1.3272 1.7982-2.5934 3.6511-3.7871 5.5606-1.1937 1.9094-2.3154 3.8741-3.3574 5.8965s-2.003 4.103-2.875 6.2402-1.6541 4.332-2.3379 6.5859-1.2707 4.567-1.748 6.9394c-0.4774 2.3724-0.8469 4.8042-1.0996 7.2969-0.1843 1.8171-0.2327 3.7021-0.2891 5.584v4.4902c0.047 1.8548 0.074 3.7016 0.25 5.6172 0.2513 2.7389 0.6373 5.5396 1.168 8.4043 0.5306 2.8647 1.2049 5.7928 2.0332 8.7852 0.8282 2.9923 1.811 6.0481 2.955 9.1699 1.1441 3.1218 2.4497 6.3094 3.9278 9.5625s3.022 6.3953 4.625 9.4356c1.603 3.0402 3.2649 5.9788 4.9785 8.8242s3.4791 5.5972 5.2891 8.2656c1.8099 2.6685 3.6646 5.2541 5.5566 7.7637 3.7841 5.0191 7.7194 9.737 11.746 14.229 4.0267 4.4915 8.1457 8.7555 12.301 12.863 8.3101 8.2156 16.762 15.809 24.9 23.354 4.0692 3.7723 8.061 7.5312 11.916 11.352 3.855 3.8204 7.573 7.7023 11.1 11.715 3.5266 4.0125 6.8614 8.1573 9.9453 12.506 1.542 2.1743 3.0218 4.3983 4.4316 6.6836 1.4099 2.2853 2.7502 4.6307 4.0137 7.0449s2.4499 4.8977 3.5528 7.459c1.1028 2.5612 2.1208 5.1996 3.0488 7.9258s1.7651 5.54 2.5039 8.4492 1.3806 5.9152 1.916 9.0254 0.9656 6.3252 1.2832 9.6543 0.5218 6.7718 0.6074 10.338c0.086 3.5661 0.051 7.2552-0.1093 11.076-0.1607 3.821-0.448 7.7732-0.8692 11.867-0.4212 4.0939-0.9758 8.33-1.6719 12.715-0.696 4.3849-1.5324 8.9195-2.5175 13.613-0.9852 4.6938-2.1197 9.5457-3.4082 14.566-1.2886 5.0207-2.7317 10.211-4.3379 15.576-1.6063 5.3656-2.9348 10.606-3.9981 15.723-1.0633 5.1168-1.8615 10.11-2.4101 14.982-0.5486 4.8724-0.8481 9.6234-0.9102 14.256-0.062 4.6324 0.1136 9.1462 0.5098 13.543s1.0135 8.6763 1.8398 12.842c0.8263 4.1655 1.8598 8.2176 3.0879 12.156 1.2282 3.9386 2.6501 7.7643 4.252 11.48 1.6018 3.7162 3.3847 7.3223 5.332 10.82 1.9473 3.498 4.0597 6.8876 6.3242 10.172 2.2645 3.2843 4.6808 6.4641 7.2344 9.5391 2.5535 3.075 5.2442 6.046 8.0586 8.916 2.8143 2.87 5.7518 5.6392 8.7988 8.3086s6.2037 5.2397 9.4551 7.7129 6.5978 4.8494 10.025 7.1309c3.4275 2.2814 6.9361 4.4666 10.512 6.5606 3.5755 2.094 7.2187 4.0969 10.914 6.0078s7.4416 3.7306 11.228 5.4629c3.7868 1.7323 7.6126 3.3756 11.463 4.9336 3.8502 1.558 7.7259 3.0299 11.611 4.418 3.8853 1.3881 7.7815 2.6934 11.674 3.916 7.7846 2.4451 15.554 4.5637 23.197 6.373s15.16 3.309 22.436 4.5176c7.2758 1.2086 14.311 2.1246 20.994 2.7676 6.6828 0.64292 13.013 1.0127 18.877 1.125 5.8643 0.11231 11.262-0.0328 16.082-0.41601 4.8199-0.38325 9.0613-1.0039 12.611-1.8477 3.55-0.84375 7.586-1.6468 12.037-2.3711 4.4511-0.72434 9.3175-1.3718 14.531-1.9082 5.2138-0.53643 10.775-0.96023 16.613-1.2402 5.838-0.28 11.954-0.41601 18.277-0.37109 6.3238 0.0449 12.854 0.27063 19.525 0.70898 6.6712 0.43836 13.483 1.0899 20.363 1.9902 6.8802 0.90029 13.829 2.0478 20.779 3.4785 6.9507 1.4307 13.902 3.1441 20.785 5.1738 3.4414 1.0148 6.8671 2.1097 10.266 3.2871 3.3985 1.1774 6.7711 2.4385 10.109 3.7871 3.3382 1.3486 6.6416 2.7842 9.9023 4.3125s6.4787 3.1487 9.6446 4.8652c3.1658 1.7166 6.2802 3.53 9.334 5.4434 3.0537 1.9134 6.0464 3.9261 8.9707 6.0449 2.9242 2.1188 5.7791 4.343 8.5566 6.6758 2.7775 2.3327 5.4783 4.7748 8.0918 7.3301s5.1401 5.2234 7.5723 8.0098c2.4321 2.7864 4.7684 5.6908 7.0019 8.7168s4.3634 6.173 6.3809 9.4473c2.0175 3.2742 3.9228 6.676 5.707 10.207s3.4468 7.1919 4.9805 10.988c1.5336 3.7964 2.9393 7.7286 4.205 11.799 1.2658 4.0702 2.3925 8.2781 3.3731 12.631 0.9806 4.3527 1.8141 8.8504 2.4922 13.494 0.6781 4.6438 1.6051 9.1689 2.7656 13.578 1.1605 4.4093 2.5553 8.7008 4.166 12.881 1.6107 4.18 3.438 8.2471 5.4668 12.203 2.0288 3.956 4.2591 7.8018 6.6738 11.539 2.4148 3.7373 5.0147 7.3668 7.7833 10.891 2.7685 3.5238 5.7047 6.9422 8.7949 10.258 3.0902 3.3156 6.3331 6.528 9.7129 9.6406 3.3797 3.1126 6.8961 6.1262 10.533 9.041 3.6371 2.9148 7.3954 5.7308 11.258 8.4531 3.8623 2.7224 7.8293 5.3497 11.885 7.8848 4.0555 2.5351 8.1997 4.9789 12.416 7.332 4.2164 2.3531 8.5044 4.6166 12.85 6.793 4.3452 2.1764 8.7475 4.2647 13.189 6.2695 4.4419 2.0049 8.9233 3.925 13.43 5.7637 9.0129 3.6772 18.123 7.0285 27.201 10.072 9.0781 3.0438 18.125 5.7802 27.012 8.2324 8.8863 2.4522 17.612 4.6207 26.049 6.5234 8.4373 1.9027 16.585 3.5403 24.316 4.9356 7.7312 1.3952 15.046 2.5469 21.814 3.4766 6.768 0.92969 12.99 1.6364 18.537 2.1426 5.5476 0.50615 10.42 0.81289 14.49 0.9375 4.0701 0.12461 7.3384 0.0685 9.6739-0.14649 1.1677-0.10747 2.1012-0.25496 2.7871-0.43945 0.6859-0.18448 1.123-0.40586 1.2949-0.66211 0.061-0.0906 0.051-1.7866 0.1016-2.0996v-48.52c-0.4761-25.694-1.2745-58.415-2.4688-99.236-1.2906-44.115-2.9367-95.393-4.7969-150.23-1.8601-54.833-3.9359-113.22-6.0859-171.56-4.3-116.67-8.8984-233.12-12.68-320.49-1.8906-43.684-3.5766-80.095-4.918-105.63-0.6707-12.766-1.2553-22.813-1.7363-29.688-0.4609-6.5887-0.8131-9.8489-1.0684-10.215z" stroke="#fff" stroke-width=".96543"/>
</svg>
