<svg xmlns="http://www.w3.org/2000/svg" height="939" width="895" version="1.1" xmlns:xlink="http://www.w3.org/1999/xlink" viewBox="591.157 0.862 894.99999 939.00001"><defs><style>.cls-1 {
        fill: url(#linear-gradient);
      }</style><linearGradient id="linear-gradient" y2="637.12" gradientUnits="userSpaceOnUse" x2="1307.6" gradientTransform="matrix(.99168 .038851 -.039434 1.0086 27.05 -54.66)" y1="-66.55" x1="717.65"><stop stop-color="#01014a" offset="0"/><stop stop-color="#080031" offset="1"/></linearGradient><linearGradient id="a" y2="637.12" xlink:href="#linear-gradient" gradientUnits="userSpaceOnUse" x2="1307.6" gradientTransform="matrix(.99168 .038851 -.039434 1.0086 -2.8995 -53.551)" y1="-66.55" x1="717.65"/></defs><path id="Background_Ilustracion" stroke-width="1.0009" fill="url(#a)" d="m691.86 0.72558c-51.34 7.9267-109.75 49.65-99.74 108.01 9.425 68.736 74.794 105.11 109.61 159.13 31.55 54.113 4.1965 115.27-9.0465 170.03-13.375 67.192 38.066 126.7 96.561 151.54 52.315 24.489 111.7 36.972 168.99 25.638 79.438-4.6512 177.53 17.39 214.36 96.453 17.125 37.933 10.595 84.864 42.084 116.5 64.829 71.669 164.64 95.313 256.34 111.05 22.831 7.2547 7.9177-28.675 12.27-42.545 0.9573-298.62 1.9147-597.24 2.872-895.87-264.76 0.016102-529.53 0.032203-794.29 0.048305z"/></svg>
