<svg xmlns="http://www.w3.org/2000/svg" xmlns:xlink="http://www.w3.org/1999/xlink" viewBox="193 71.754 159.071 40.772">
  <defs>
    <style>
      .cls-1 {
        fill: url(#linear-gradient);
      }

      .cls-2 {
        fill: #fff;
      }

      .cls-3 {
        fill: url(#linear-gradient-3);
      }
    </style>
    <linearGradient id="linear-gradient" x1="0.666" y1="1" x2="-0.221" y2="-0.184" gradientUnits="objectBoundingBox">
      <stop offset="0" stop-color="#00d3ff"/>
      <stop offset="1" stop-color="#02004a"/>
    </linearGradient>
    <linearGradient id="linear-gradient-3" x1="1.117" y1="0.776" x2="-1.942" y2="0.5" xlink:href="#linear-gradient"/>
  </defs>
  <g id="Group_174" data-name="Group 174" transform="translate(193 71.755)">
    <path id="Path_1" data-name="Path 1" class="cls-2" d="M75.7,40.782,70,16.753h5.809l1.8,9.876c.528,2.9,1.056,5.968,1.426,8.45h.053c.37-2.641.951-5.545,1.584-8.5l2.007-9.823h5.757l1.9,10.14c.528,2.8.951,5.387,1.268,8.027h.053c.37-2.693.9-5.492,1.373-8.4L94.98,16.7h5.545L94.347,40.73H88.484L86.477,30.378c-.475-2.429-.845-4.647-1.162-7.394h-.053c-.423,2.693-.845,4.964-1.373,7.447l-2.271,10.3H75.7Z" transform="translate(-33.031 -7.88)"/>
    <path id="Path_2" data-name="Path 2" class="cls-2" d="M190.958,34.515q0-3.248-.158-5.545h4.7l.264,2.429h.106a6.278,6.278,0,0,1,5.387-2.8c3.539,0,6.232,2.377,6.232,7.5V46.4h-5.44V36.733c0-2.271-.792-3.8-2.746-3.8a3.1,3.1,0,0,0-2.8,2.007,3.64,3.64,0,0,0-.158,1.373V46.345h-5.44V34.515Z" transform="translate(-90.034 -13.496)"/>
    <path id="Path_3" data-name="Path 3" class="cls-2" d="M230.64,29.516h.053A20.33,20.33,0,0,1,231.96,27.4l3.538-5.228h6.5l-6.232,7.077,7.13,10.351h-6.654l-4.225-7.182-1.373,1.69v5.44H225.2V14.2h5.44Z" transform="translate(-106.266 -6.701)"/>
    <rect id="Rectangle_1" data-name="Rectangle 1" class="cls-2" width="5.44" height="25.35" transform="translate(135.834 7.552)"/>
    <path id="Path_4" data-name="Path 4" class="cls-2" d="M272.668,29.3l2.588,8.608c.264,1,.634,2.324.845,3.222h.106c.264-.951.528-2.271.792-3.274l2.112-8.556h5.809l-4.014,11.46c-2.482,6.971-4.172,9.717-6.126,11.46a9.61,9.61,0,0,1-5.229,2.377l-1.162-4.542a9.271,9.271,0,0,0,2.377-.951,6.355,6.355,0,0,0,2.271-2.165,1.751,1.751,0,0,0,.264-.792,2.6,2.6,0,0,0-.211-.9L266.7,29.3Z" transform="translate(-125.849 -13.826)"/>
    <path id="Path_5" data-name="Path 5" class="cls-3" d="M147.489,33.4a11.658,11.658,0,0,1-6.337-2.165s3.116-4.172,7.13-4.595c3.486-.37,5.44,1.109,5.6,2.324.106,1.215-1.268,4.225-6.39,4.436m-15.474,3.169c-5.123,1.637-7.288-.792-7.658-1.954s.37-3.01,4.225-4.067c3.8-1.056,8.4,1.848,8.4,1.848a10.863,10.863,0,0,1-4.964,4.172M148.281,21.2c-8.4.106-10.193,8.186-10.193,8.186-2.958-2.852-5.862-4.331-10.087-3.908s-7.6,4.278-7.816,7.288c-.264,2.957,2.641,8.608,9.348,8.608s9.506-7.024,9.506-7.024a11.625,11.625,0,0,0,9.084,4.014c7.552-.158,9.717-5.176,10.087-7.658.37-2.957-1.532-9.665-9.929-9.506" transform="translate(-56.705 -10.001)"/>
    <path id="Union_2" data-name="Union 2" class="cls-1" d="M-191.943-38.852A1.059,1.059,0,0,1-193-39.908V-60.4a1.059,1.059,0,0,1,1.057-1.057h12.116a31.923,31.923,0,0,0-3.387-5.16,3.016,3.016,0,0,1-2.445,1.252,3.009,3.009,0,0,1-3.01-3.01,3.062,3.062,0,0,1,2.528-2.957h1.051a3.01,3.01,0,0,1,2.389,2.393v1.132a2.98,2.98,0,0,1-.205.656,30.846,30.846,0,0,1,3.716,5.694h7.3a28.221,28.221,0,0,1,3.862-6.066,3,3,0,0,1-.26-1.223,2.976,2.976,0,0,1,3.01-3.01,3.008,3.008,0,0,1,2.957,2.446v1.132a3.01,3.01,0,0,1-2.393,2.39h-1.132A3,3,0,0,1-167.729-67a28.29,28.29,0,0,0-3.592,5.547h12.173a.984.984,0,0,1,1,1.057v20.491a1.059,1.059,0,0,1-1.057,1.056Zm10.456-14.418a5.064,5.064,0,0,0-4.33,4.014,4.926,4.926,0,0,0,5.175,4.753c3.75,0,5.281-3.908,5.281-3.908a6.585,6.585,0,0,0,5.018,2.218c4.172-.053,5.387-2.852,5.545-4.226.212-1.637-.845-5.334-5.492-5.228a5.93,5.93,0,0,0-5.651,4.541,6.494,6.494,0,0,0-4.828-2.2C-181-53.3-181.24-53.293-181.487-53.27Zm-2.007,5.017c-.211-.687.212-1.69,2.324-2.271,2.113-.528,4.648,1,4.648,1a6.007,6.007,0,0,1-2.746,2.324,5.664,5.664,0,0,1-1.8.332A2.384,2.384,0,0,1-183.494-48.253Zm9.243-1.849s1.742-2.271,3.961-2.534c1.9-.212,3.01.581,3.116,1.267.052.687-.687,2.377-3.539,2.482h-.114A6.536,6.536,0,0,1-174.251-50.1Z" transform="translate(193 71.754)"/>
  </g>
</svg>
